<svg width="4299" height="2647" viewBox="0 0 4299 2647" fill="none" xmlns="http://www.w3.org/2000/svg">
<g clip-path="url(#clip0_1503_78830)">
<path d="M2927.74 780.951C2914.8 775.981 2902.22 769.643 2888.87 766.26C2848.44 756.02 2808.17 742.815 2767.04 738.34C2701.16 731.176 2649.59 759.248 2615.81 816.819C2603.77 837.336 2594.31 859.384 2586.23 883.171C2629.23 835.105 2675.96 794.057 2740.37 779.504C2802.8 765.378 2864.82 772.335 2927.76 780.957L2927.74 780.951Z" fill="#FFE500"/>
<path d="M2648.47 1749.39C2668.28 1731.92 2672.7 1708.55 2659 1683.99C2649.36 1666.7 2643.98 1650.42 2656.69 1630.67C2648.17 1625.59 2640.67 1621.13 2633.18 1616.69C2612.19 1650.51 2618.19 1700.77 2648.47 1749.39Z" fill="#FFE500"/>
<path d="M2229.12 1227.17C2205.72 1269.29 2207.75 1310.76 2222.62 1352.79C2249.32 1348.84 2256.27 1336.69 2247.79 1312.2C2244.33 1302.17 2240.69 1288.88 2244.48 1280.31C2254.44 1257.7 2245.11 1243.02 2229.13 1227.15L2229.12 1227.17Z" fill="#FFE500"/>
<path d="M2321.88 1120.68C2262.09 1126.31 2262.52 1134.52 2250.8 1173.39C2278.71 1172.08 2310.4 1151.33 2321.88 1120.68Z" fill="#FFE500"/>
<path d="M2450.2 909.998C2425.43 905.697 2416.55 898.602 2377.79 904.157L2329.42 1035.26C2327.91 1085.05 2347.92 1144.13 2310.48 1166.12C2292.14 1176.9 2270.8 1182.66 2250.81 1190.65C2247.7 1191.9 2244.56 1193.1 2241.14 1194.4C2235.42 1196.56 2233.34 1203.44 2236.82 1208.46C2238.24 1210.5 2239.55 1212.47 2240.77 1214.49C2259.37 1245.43 2277.77 1276.5 2296.5 1307.37C2298.87 1311.26 2302.21 1315.43 2306.14 1317.39C2335.06 1331.84 2364.22 1345.76 2395.49 1360.92C2396.65 1352.1 2398.89 1340.39 2399.42 1328.59C2399.67 1323.46 2397.69 1314.74 2394.45 1313.49C2365.52 1307.37 2367.72 1291.81 2339.68 1288.5C2322.96 1286.54 2310.24 1269.31 2305.19 1256.4C2303.32 1251.59 2310.54 1241.2 2316.16 1236.19C2319.89 1232.87 2328.48 1233.05 2334.24 1234.43C2344.34 1236.86 2353.65 1242.65 2363.78 1244.85C2418.05 1256.58 2441.67 1263.34 2464.43 1205.77L2464.63 1205.25C2470.23 1191.12 2475.46 1177.89 2475.46 1147.06C2485.54 1185.64 2478.79 1198.99 2473.4 1227.78C2459.19 1288.5 2404.66 1270.76 2413.97 1282.04C2429.19 1300.53 2433.03 1314.63 2430.76 1333.72C2427.01 1365.37 2438.01 1380.95 2459.19 1402.84C2460.9 1404.61 2462.45 1419.27 2460.48 1425.45C2461.66 1431.91 2457.45 1432.05 2457.89 1433.85C2458.2 1435.07 2463.32 1434.22 2463.71 1434.49C2465 1435.78 2462.96 1436.24 2464.35 1437.08C2465.53 1437.78 2468.88 1435.14 2470.81 1437.72C2480.84 1439.66 2494.03 1430.98 2496.13 1432.05C2523.03 1445.79 2558.54 1445.04 2565.54 1467.71C2545.4 1554.98 2577.37 1571.34 2620.62 1593.47L2621.46 1593.9C2640.65 1603.72 2658.83 1615.48 2677.71 1625.88C2693.5 1634.57 2702.51 1647.54 2704.95 1665.24C2708.42 1690.24 2711.88 1715.27 2715.24 1740.3C2718.93 1767.82 2744.22 1795.26 2773.74 1802.79C2774 1774.31 2777.5 1746.07 2746.74 1728.1C2740.35 1724.36 2738.99 1711.5 2736.07 1702.6C2735.22 1700.05 2736.69 1696.53 2737.64 1693.63C2761.75 1620.46 2753.57 1633.79 2716.04 1571.73C2703.71 1551.35 2701.39 1535.4 2713.72 1514.56C2724.7 1495.97 2731.13 1474.73 2738.87 1456.32C2757.25 1475.23 2775.79 1496.38 2796.62 1514.94C2808.29 1525.34 2823.02 1533.23 2837.62 1539.22C2884.35 1558.38 2930.62 1538.2 2949.87 1491.32C2967.21 1449.09 2967.92 1406.79 2945.16 1366.53C2930.97 1341.44 2914.88 1317.18 2897.4 1294.25C2880.3 1271.8 2860.33 1251.5 2840.13 1231.2C2853.26 1268.4 2868.22 1305.78 2901.42 1329.27C2935 1353.03 2957.25 1393.19 2951.08 1434.58C2947.29 1459.93 2938.81 1483.69 2920.54 1502.7C2896.52 1527.67 2864.1 1531.75 2830.72 1513.27C2801 1496.83 2778 1472.93 2769.32 1440.04C2752.87 1377.7 2720.94 1324.98 2680.11 1275.88C2663.11 1255.43 2650.21 1230.52 2639.95 1205.77C2622.98 1164.82 2609.63 1122.38 2594.91 1080.52C2593.74 1077.2 2593.71 1073.51 2592.39 1065.33C2610.52 1064.93 2628.13 1061.1 2643.94 1064.86C2690 1075.82 2735.26 1090.24 2781.05 1102.44L2783.07 1102.98C2814.5 1111.36 2846.02 1119.77 2878.01 1125.25C2892.77 1127.77 2908.78 1122.92 2924.22 1121.43C2924.25 1119.53 2924.26 1117.63 2924.29 1115.73L2923.19 1115.25C2834.7 1076.01 2746.2 1036.78 2656.55 997.024C2662.74 997.627 2668.89 997.765 2674.84 998.88C2745.05 1012 2810.22 1040.06 2876.29 1065.8C2917.53 1081.85 2959.56 1096.54 3002.3 1107.74C3038.81 1117.3 3075.62 1112.31 3113.85 1091.99C2985.47 1053.14 2874.24 980.499 2744.46 955.002L2733.07 950.666L2720.8 946.144C2731.14 945.502 2742.12 945.502 2747.16 945.502C2790.66 954.587 2835.36 960 2877.38 973.645C2934.63 992.257 2989.89 1017.09 3045.96 1039.36C3091.16 1057.29 3137.02 1070.42 3186.43 1060.77C3227.03 1052.84 3258.02 1029.81 3286.24 998.619C3282.48 997.49 3280.37 996.162 3278.44 996.383C3215.82 1003.26 3155.51 991.942 3096.52 972.331C3052.06 957.564 3008.38 940.497 2963.95 925.696C2928.39 913.84 2892.18 903.894 2856.26 893.099L2845.47 889.946L2857.2 887.945C2872.12 889.763 2887.39 890.148 2901.92 893.626C2952.84 905.85 3003.67 918.609 3054.26 932.142C3125.26 951.138 3196.68 961.851 3269.82 946.348C3303.02 939.298 3333.24 925.976 3356.51 900.233C3362.03 894.115 3366.12 886.68 3371.88 878.422C3248.54 891.472 3133.25 861.964 3017.16 837.285C2954.62 823.951 2891.6 810.736 2828.12 804.119C2741.84 795.136 2671.7 829.519 2619.05 898.602C2598.2 925.959 2577.81 953.671 2556.99 981.494C2554.02 980.362 2553.13 980.29 2552.98 979.92C2534.82 932.847 2495.58 917.872 2450.2 909.998Z" fill="#FFE500"/>
<g clip-path="url(#clip1_1503_78830)">
<path d="M2234.26 843.578C2261.01 850.422 2268.95 859.504 2272.56 882.754C2273.09 886.127 2276.7 889.95 2279.91 891.712C2283.95 893.929 2289.03 894.331 2293.7 895.362C2314.76 900.053 2325.22 899.494 2329.99 908.032C2348.08 908.032 2340.32 909.547 2380.38 903.693C2429.47 903.693 2452.64 920.915 2458.89 921.817C2463.54 952.103 2465.07 966.167 2458.89 995.552C2451.63 1030.12 2424.74 1067.93 2404.47 1096.15C2390.55 1115.52 2354.92 1131.5 2338.28 1148.48C2323.57 1111.09 2319.68 1100.07 2307.4 1084.72C2296.55 1071.49 2289.12 1064.95 2283.25 1059.24C2256.16 1088.26 2224.42 1065.49 2195.27 1067.2C2177.74 1068.21 2161.12 1066.87 2144.83 1077.06C2126.43 1088.58 2088.55 1065.44 2087.95 1043.42C2087.83 1039.08 2091.21 1033.58 2094.62 1030.35C2118.57 1007.77 2136.87 981.944 2148.81 950.802C2153.14 939.49 2164.83 930.589 2174.31 921.818C2181.49 915.168 2190.52 910.483 2200.52 903.693C2169 909.465 2156.63 887.247 2140.06 873.065C2157.94 876.779 2175.72 882.567 2193.76 883.607C2210.24 884.55 2227.16 881.202 2243.62 878.192C2254.53 876.193 2255.77 869.383 2248.05 861.016C2243.63 856.236 2239.92 850.812 2234.26 843.578ZM2203.38 964.876C2195.63 974.178 2185.08 973.059 2180.78 971.336L2176.25 971.336C2175.39 973.705 2176 978.313 2185.3 977.796C2196.93 977.15 2202.09 971.336 2203.38 964.876Z" fill="#FFE500"/>
</g>
</g>
<path d="M1505.85 1816.77L1498.26 1816.27H1462.33L1459.8 1814.24L1458.29 1808.68L1457.78 1801.59L1458.29 1798.56L1457.27 1791.47L1456.26 1783.38L1454.74 1779.33L1455.25 1772.75L1455.76 1769.72L1455.25 1762.63L1454.74 1759.09V1748.97L1453.23 1745.43L1454.24 1742.4L1453.73 1738.85L1454.24 1731.77L1452.72 1725.7L1453.73 1720.13L1454.74 1712.54L1453.73 1705.97L1452.72 1701.41L1451.71 1692.3V1688.76L1453.73 1676.11L1453.23 1667.51L1452.72 1658.4L1453.23 1649.3L1452.21 1640.19H1449.68L1446.65 1645.25L1445.64 1648.79L1443.61 1651.83L1441.08 1660.93L1437.54 1669.54L1434.51 1676.11L1422.36 1705.46L1420.34 1709L1411.23 1729.24L1410.72 1732.78L1407.69 1738.85L1407.18 1741.89L1405.66 1747.46L1402.63 1754.03L1399.59 1760.1L1398.58 1763.14L1397.06 1769.21L1395.55 1772.75L1393.52 1775.79L1392 1782.87L1390.49 1786.42L1388.46 1791.47L1386.94 1796.03L1385.93 1801.59L1382.39 1807.16L1380.87 1810.2L1379.86 1812.73L1372.78 1815.26H1369.74L1365.19 1813.74L1362.66 1814.75L1351.02 1814.24L1344.95 1815.76L1339.89 1813.74L1336.85 1814.24H1331.79L1328.25 1814.75H1323.19L1319.65 1814.24L1316.61 1809.69L1317.12 1805.64L1316.11 1802.1L1316.61 1797.04V1792.49L1316.11 1788.95L1316.61 1782.87L1316.11 1779.84L1316.61 1776.3L1316.11 1771.74L1316.61 1768.2L1317.12 1762.63V1757.57L1317.63 1754.54L1318.13 1747.46L1317.63 1743.91L1318.13 1740.37L1317.63 1733.29V1723.17L1318.13 1720.13L1318.64 1713.05V1685.22L1319.14 1678.14V1674.09L1320.16 1664.98L1319.14 1658.4L1319.65 1653.85L1320.66 1647.27V1643.73L1321.67 1639.68L1321.17 1636.14V1627.54L1321.67 1624L1322.18 1617.93L1321.67 1614.38L1322.18 1607.81L1321.67 1604.77L1322.18 1597.69L1321.67 1593.64L1322.69 1590.1L1322.18 1582.51L1321.67 1578.97L1322.18 1564.29L1322.69 1557.21L1322.18 1550.63L1323.19 1541.02L1323.7 1537.48L1324.2 1532.42V1526.34L1324.71 1518.76L1324.2 1508.13V1504.59L1325.22 1494.47V1491.43L1325.72 1487.89L1325.22 1481.82V1478.28L1325.72 1475.24V1470.69L1326.73 1463.6L1332.8 1462.09H1345.96L1351.53 1461.58L1356.59 1462.09H1359.12L1363.16 1461.58H1373.28L1379.86 1462.59L1385.43 1462.09H1388.97L1394.53 1465.12L1395.55 1473.72V1478.28L1396.05 1481.82L1394.03 1497.5V1500.54L1394.53 1504.08L1394.03 1522.8L1393.02 1525.84L1392.51 1537.48V1546.58L1392 1550.13L1390.49 1557.21V1563.79L1391.5 1570.87L1390.99 1574.41L1390.49 1577.45L1389.98 1584.53L1389.47 1588.07V1591.11L1388.46 1594.65V1597.69L1387.96 1601.23L1388.46 1604.26L1387.96 1615.4L1386.94 1622.48L1387.45 1626.02L1386.94 1630.07V1637.15L1385.93 1643.73L1386.44 1648.79H1388.46L1391.5 1643.22L1393.02 1640.19L1396.05 1633.61L1397.06 1630.07L1400.1 1623.49L1401.62 1617.42L1405.16 1610.84L1405.66 1607.81L1412.75 1595.66L1413.76 1589.59L1417.3 1580.48L1418.31 1576.94L1422.87 1567.83L1424.89 1561.76L1426.41 1559.23L1428.94 1553.16L1430.46 1550.13L1431.98 1544.56L1435.01 1537.48L1440.07 1524.83L1441.08 1521.28L1444.62 1511.17L1447.66 1504.59L1448.67 1500.54L1451.71 1491.43L1453.23 1488.4L1456.77 1481.82L1461.83 1479.29H1478.02L1484.09 1479.8L1489.15 1479.29H1493.2L1496.74 1479.8H1500.28L1502.81 1483.34L1503.32 1495.99V1511.17L1503.82 1519.26L1503.32 1529.89V1532.92L1503.82 1540.01L1503.32 1543.04L1503.82 1561.76V1565.3L1502.81 1571.88L1503.32 1577.45V1587.57L1503.82 1591.62L1502.81 1594.65L1503.32 1598.7L1502.81 1602.24L1502.31 1606.29L1503.32 1616.41L1502.81 1634.62L1503.82 1641.71V1650.31H1506.35L1507.87 1644.74L1510.4 1638.67L1512.43 1632.09L1516.47 1617.93L1516.98 1614.38L1517.99 1611.35L1522.54 1599.71L1524.06 1593.64L1525.58 1590.6L1526.59 1587.06L1527.6 1584.03L1529.12 1580.48L1530.64 1577.45L1532.66 1570.87L1533.68 1566.82L1535.7 1560.75L1536.21 1557.21L1537.22 1554.17L1538.23 1550.63L1541.77 1544.56L1542.28 1541.02L1543.8 1534.95L1546.33 1521.79L1549.87 1515.21L1551.89 1508.64L1553.41 1503.07L1555.94 1497.5L1558.47 1490.42L1559.99 1487.38L1561 1483.84L1562.52 1480.3L1563.02 1476.76L1564.03 1473.72L1567.07 1467.15L1568.59 1464.62L1574.66 1462.09H1578.2L1581.74 1461.07L1597.43 1461.58H1607.55L1618.17 1461.07L1625.26 1461.58L1628.8 1461.07L1632.34 1461.58H1637.4L1640.44 1464.62L1639.42 1473.22L1638.41 1476.25L1636.39 1481.82L1634.87 1484.85L1629.81 1497L1627.79 1503.07L1626.27 1510.15L1624.25 1516.73L1622.73 1520.27L1622.22 1523.31L1618.17 1529.89L1617.16 1533.43L1613.62 1543.04L1612.61 1546.58L1610.08 1552.66L1609.57 1556.2L1605.52 1565.3L1604.51 1569.86L1603.5 1572.39L1600.46 1578.97L1599.45 1582L1596.92 1590.1L1594.9 1593.13L1592.37 1599.71L1590.85 1603.25L1589.84 1606.79L1588.32 1613.88L1587.31 1616.91L1585.29 1620.46L1583.26 1626.02L1579.72 1632.09L1577.19 1639.18L1575.67 1644.74L1572.13 1649.3L1571.12 1652.33L1570.61 1655.37L1567.58 1667.51L1565.05 1674.09L1563.53 1677.12L1561.5 1683.2L1557.46 1691.29L1555.94 1698.38L1551.89 1705.46L1550.37 1712.54L1548.35 1716.08L1547.84 1719.63L1543.8 1730.25L1542.78 1733.29L1540.25 1740.37L1539.24 1743.41L1537.22 1746.95L1536.21 1753.53L1535.19 1757.07L1532.16 1763.14L1530.13 1769.72L1528.62 1773.77L1526.09 1780.85L1525.58 1783.89L1524.06 1790.46L1516.98 1802.61L1513.44 1815.26L1505.85 1816.77ZM1671.48 1816.77L1667.93 1816.27H1653.26L1646.18 1815.26H1642.13L1638.59 1815.76L1633.02 1815.26L1629.48 1814.75L1625.43 1815.26L1621.38 1814.24L1617.34 1810.7L1616.83 1803.11L1619.36 1796.03L1619.87 1788.44L1620.88 1784.9L1621.89 1777.81L1622.4 1773.77L1623.91 1766.18L1624.42 1762.63L1625.43 1758.59L1625.94 1755.04L1627.96 1748.47L1627.46 1745.43L1628.97 1736.32L1630.49 1730.76L1631.5 1726.2L1633.02 1721.65L1634.03 1717.1L1635.05 1711.03V1707.48L1636.06 1703.94L1636.56 1700.91L1637.57 1697.36L1637.07 1693.82L1640.61 1682.69L1641.62 1675.1V1672.07L1642.63 1668.52L1643.14 1664.98L1643.65 1661.95L1644.66 1654.86V1647.78L1646.68 1640.69V1637.15L1647.69 1630.07L1649.72 1626.02V1619.44L1650.73 1613.37L1652.25 1606.79L1654.78 1599.71L1656.3 1589.09V1582L1657.81 1578.46L1658.83 1571.38L1659.33 1568.34L1658.83 1564.8L1660.85 1558.73L1661.36 1555.69L1662.87 1549.11L1663.38 1545.57L1665.4 1538.99L1664.9 1535.45L1665.4 1531.4L1665.91 1524.83L1666.92 1522.3L1667.93 1515.21L1669.45 1508.64L1669.96 1505.6L1670.97 1502.56L1671.48 1496.49L1672.49 1490.93L1674.51 1485.36L1675.52 1477.77L1676.53 1474.74L1677.04 1471.19L1680.58 1466.13L1684.12 1464.62L1687.16 1462.59L1690.7 1462.09L1698.29 1461.58L1702.85 1462.09H1709.93L1713.47 1461.58H1740.29L1743.83 1461.07L1749.4 1462.59L1751.42 1467.65L1750.91 1470.69V1477.27L1749.9 1478.78L1749.4 1484.35L1749.9 1487.38L1748.38 1489.41V1493.96L1746.87 1496.49L1745.85 1503.58L1743.83 1508.13V1512.18L1743.32 1515.21V1518.76L1742.82 1521.79L1740.29 1534.95L1739.28 1540.51L1738.26 1543.55L1737.25 1549.62L1736.75 1553.16L1736.24 1559.23L1735.73 1562.77L1734.72 1569.35L1733.2 1575.42L1731.69 1582L1731.18 1584.53L1729.66 1591.62L1728.14 1596.17V1600.72L1727.64 1604.26L1727.13 1608.31V1611.85L1726.12 1618.43L1724.6 1623.49L1722.07 1638.67L1720.05 1645.75L1718.53 1649.3V1653.34L1717.01 1659.92L1716 1666.5L1714.99 1672.57L1712.96 1679.65V1683.7L1710.94 1690.79V1694.83L1709.93 1701.92L1709.42 1704.45V1711.53L1706.89 1716.59L1707.4 1722.16L1705.88 1729.75L1705.38 1733.79L1703.35 1740.37V1744.42L1701.83 1751.5L1700.82 1758.59L1699.81 1765.16V1768.71L1698.29 1774.27L1696.27 1786.42L1694.75 1792.99L1693.74 1800.08L1692.22 1806.65L1691.71 1810.7L1690.2 1815.26L1684.63 1816.77H1671.48ZM1760.37 1816.77L1752.78 1815.76L1750.25 1809.69L1751.26 1805.64V1797.55L1752.28 1789.45L1754.3 1782.37L1754.81 1778.83L1756.32 1771.74L1757.34 1769.21L1758.85 1762.13L1759.87 1757.57L1761.38 1749.48V1745.94L1762.4 1741.89V1735.31L1764.42 1731.77L1764.93 1725.7L1765.43 1722.16L1766.95 1716.08L1767.46 1713.05L1766.95 1709.51L1767.96 1702.93L1769.99 1694.83L1771 1688.76L1772.01 1684.21L1773.53 1678.64L1774.54 1672.57L1775.05 1669.03L1776.06 1665.99L1776.56 1659.42L1777.07 1656.38V1653.34L1779.6 1647.27L1780.11 1644.24L1780.61 1640.69L1781.12 1633.61L1781.62 1628.55L1784.15 1622.48L1785.17 1618.43L1786.18 1613.37V1606.29L1786.68 1602.24L1788.2 1598.19V1594.15L1789.72 1590.6V1587.06L1790.73 1583.52L1791.74 1576.94L1793.26 1571.38L1794.78 1566.82V1560.75L1795.28 1557.21L1796.3 1554.17L1798.83 1540.01V1536.46L1800.85 1531.91L1801.86 1527.36L1802.37 1520.78L1802.87 1517.24L1803.38 1514.2L1803.89 1510.66L1804.9 1507.62L1805.4 1504.08L1806.42 1497.5L1807.43 1491.43L1808.95 1484.85V1480.81L1810.46 1474.23L1811.48 1471.19L1812.99 1468.66L1816.03 1463.1L1821.09 1462.09L1828.17 1461.58L1836.77 1462.09H1841.33L1847.91 1461.58L1857.52 1462.09L1863.59 1461.58L1871.18 1462.09H1878.26L1883.83 1463.6L1886.87 1468.16L1887.37 1471.7L1889.4 1476.76L1890.41 1482.83L1890.91 1488.4L1892.94 1495.48L1894.96 1507.62L1896.48 1515.72L1898 1524.32L1899.52 1531.4L1901.54 1541.52L1902.55 1545.57L1903.06 1549.11L1904.07 1556.7L1905.59 1563.28V1566.32L1907.1 1571.88V1575.42L1907.61 1580.99L1909.13 1588.58L1910.14 1597.18L1911.66 1605.78L1912.16 1613.88L1913.18 1620.96L1914.19 1625.01L1915.71 1638.67L1917.73 1650.31L1918.74 1661.44V1664.98L1919.75 1668.52L1920.77 1674.6L1922.28 1688.26L1923.8 1699.39H1925.32L1925.83 1689.27L1926.84 1677.12V1670.04L1928.36 1645.75L1929.87 1635.13V1617.93L1931.39 1610.84L1931.9 1607.81L1932.4 1604.26L1932.91 1600.22L1933.42 1593.13L1934.43 1590.1L1935.44 1583.01V1579.98L1937.46 1573.4V1567.33L1937.97 1561.26V1557.72L1941.01 1551.64L1940.5 1548.1L1942.02 1538.99V1535.96L1943.53 1529.38L1944.04 1525.84L1945.05 1522.8L1946.06 1515.72L1946.57 1511.67L1948.09 1504.59L1949.1 1501.05L1950.62 1497V1492.44L1951.12 1489.41L1952.64 1481.31L1954.67 1470.69L1958.71 1463.6L1960.74 1462.09L1970.35 1460.06L1980.98 1461.07L1984.52 1460.57H1989.58L2001.22 1461.07H2006.28L2013.36 1460.57L2020.44 1462.09L2023.48 1463.6L2023.98 1467.65V1471.7L2022.47 1478.78L2022.97 1482.83L2021.45 1493.96L2020.44 1501.05L2017.41 1513.19L2015.89 1518.76L2014.37 1527.86L2013.36 1531.91L2011.84 1542.54L2009.82 1550.63L2008.81 1558.73L2007.29 1563.28L2006.28 1567.33L2005.26 1570.87V1577.45L2004.25 1580.99L2002.23 1596.17L2000.71 1600.72L2000.2 1606.29L1999.7 1609.83L1998.69 1613.88L1997.17 1620.46L1996.16 1624L1994.64 1630.58L1993.63 1637.66L1992.61 1641.71L1993.12 1646.26L1992.11 1649.3L1991.6 1652.84L1990.59 1655.87L1990.08 1659.42L1989.58 1662.45V1669.03L1988.06 1672.07L1986.54 1679.15L1985.53 1683.7L1985.02 1688.26L1984.52 1691.29L1984.01 1694.83L1983.51 1697.87V1700.91L1981.48 1707.99L1980.47 1715.07L1979.46 1720.13L1977.44 1724.69L1975.41 1730.76L1974.91 1736.32L1974.4 1742.9L1973.39 1749.48L1971.87 1753.53L1969.85 1760.61V1768.71L1967.32 1775.28V1778.32L1966.3 1781.86L1964.79 1788.44L1962.26 1804.63L1957.7 1810.7L1952.64 1814.24L1945.56 1814.75L1939.99 1815.76H1937.97L1928.36 1815.26L1924.81 1815.76L1919.75 1815.26L1916.72 1815.76H1906.6L1900.02 1815.26H1891.42L1887.37 1811.71L1883.32 1803.62L1880.79 1796.53L1880.29 1794L1879.78 1787.93L1879.28 1784.9L1878.26 1774.27L1877.76 1771.24L1875.73 1760.61L1875.23 1757.57L1874.22 1750.49L1873.71 1742.9L1872.19 1737.34L1870.67 1729.75V1726.71L1869.16 1719.63L1868.65 1716.59L1867.13 1709.51L1866.63 1706.47V1698.88L1864.6 1688.76L1863.59 1679.15L1861.57 1664.98L1859.04 1648.79L1857.52 1634.62L1854.48 1616.41L1851.45 1597.18H1849.93L1849.42 1611.35L1848.92 1621.47L1848.41 1627.03L1847.4 1635.64L1846.89 1648.28L1843.35 1672.57L1841.33 1692.3L1840.32 1695.34L1838.8 1701.92L1839.81 1705.46L1838.29 1711.53L1837.28 1715.07L1837.79 1718.61L1837.28 1721.65L1836.27 1728.73L1834.24 1736.32L1832.22 1746.44L1831.21 1753.53L1830.7 1756.56L1829.69 1760.1L1827.67 1774.78L1826.15 1781.36L1825.64 1784.9V1791.47L1824.63 1794.51L1823.11 1803.62L1821.09 1809.69L1819.57 1814.75L1814.01 1816.77H1760.37ZM2117.12 1820.82L2110.54 1820.32H2107L2098.9 1819.3H2095.86L2087.26 1817.28L2082.2 1815.76L2073.6 1813.74L2066.52 1810.2L2059.43 1804.63L2055.39 1802.61L2050.33 1797.04L2048.3 1794.51L2046.79 1791.98L2043.24 1785.91L2039.7 1782.37L2038.18 1777.81L2036.67 1772.75L2036.16 1768.71L2034.14 1763.65L2032.62 1760.1V1757.07L2030.59 1746.44L2031.1 1737.34L2032.11 1732.28V1725.19L2032.62 1723.17V1716.59L2033.12 1713.05L2033.63 1710.01L2034.14 1703.44L2034.64 1699.89L2035.65 1693.32L2034.64 1689.77L2036.67 1683.2V1676.62L2038.18 1669.54L2038.69 1661.95L2040.71 1654.86L2041.22 1646.77L2041.73 1642.72L2043.75 1635.64L2044.76 1628.55L2047.29 1617.93L2048.81 1611.35L2048.3 1606.79L2049.82 1601.73L2050.33 1598.19L2052.35 1591.11L2053.87 1585.54L2054.88 1578.97L2055.39 1574.92L2057.41 1570.36L2057.92 1564.8L2058.93 1561.26L2059.43 1558.22L2060.95 1555.19L2061.46 1551.64L2062.98 1548.61L2063.99 1545.07L2065.51 1542.03L2068.04 1535.96L2068.54 1533.43L2070.57 1527.36L2072.59 1520.27L2074.11 1517.24L2075.63 1513.19L2078.66 1506.61L2080.18 1503.58L2081.19 1500.03L2083.72 1495.48L2086.25 1489.91L2088.28 1487.38L2089.79 1484.35L2091.82 1481.82L2097.38 1475.75L2103.96 1470.69L2110.54 1467.65L2117.12 1464.11L2123.69 1461.58L2130.27 1459.56L2138.37 1458.54L2145.45 1457.03H2160.63L2174.29 1456.52L2180.87 1457.03L2187.45 1458.04L2191.49 1459.05H2198.07L2206.67 1460.57L2210.21 1462.09L2218.82 1465.63L2225.9 1468.16L2231.97 1473.22L2239.06 1480.3L2240.57 1483.34L2242.09 1485.36L2243.1 1489.91L2245.13 1495.48L2245.63 1501.05L2246.14 1507.62V1527.36L2245.63 1533.93V1539.5L2245.13 1545.57V1549.11L2244.11 1555.19L2243.61 1561.26L2243.1 1565.81L2242.09 1573.4L2239.06 1579.98L2234.5 1583.01L2224.38 1583.52L2215.78 1583.01L2207.68 1583.52L2202.63 1583.01H2188.46L2182.89 1582.51L2177.83 1580.48L2177.33 1576.44L2177.83 1570.87L2178.84 1562.77L2179.86 1556.2L2180.87 1552.66L2180.36 1548.1L2181.88 1538.99L2181.37 1535.45L2180.87 1529.89L2180.36 1526.85L2177.83 1523.31L2174.8 1520.27L2169.74 1518.25H2158.61L2155.06 1519.26L2150.51 1521.79L2146.46 1525.84L2144.94 1528.87L2142.92 1532.42L2141.4 1535.96L2140.9 1538.99L2137.86 1544.56L2134.82 1551.14L2133.31 1557.21L2132.8 1561.26L2131.28 1564.8V1568.34L2129.26 1572.89L2128.75 1575.93L2127.74 1579.47L2126.73 1585.54L2124.71 1589.59L2124.2 1593.13L2123.19 1599.71L2121.67 1603.25L2120.66 1608.31L2120.15 1612.87L2118.63 1617.42L2117.12 1624L2116.61 1629.56L2114.59 1639.18L2113.07 1645.75L2112.06 1649.3L2111.55 1655.87L2110.54 1658.91L2110.03 1665.99V1669.54L2108.51 1674.6L2107 1680.16V1685.73L2106.49 1692.81L2105.98 1699.39L2105.48 1702.93L2104.97 1705.97L2104.47 1712.54L2103.96 1719.63V1727.22L2104.47 1732.28V1737.34L2107.5 1741.89L2109.53 1745.43L2111.04 1746.95L2116.1 1749.48L2125.72 1751H2135.33L2141.4 1748.97L2146.97 1745.43L2150.51 1740.88L2152.53 1736.32L2155.06 1730.25L2156.58 1725.7L2158.1 1720.64L2161.14 1709L2163.67 1689.27L2162.65 1686.74L2159.11 1686.23H2147.47L2144.44 1683.2V1677.12L2146.97 1663.46L2148.49 1651.32L2149.5 1646.26L2150 1642.21L2152.53 1631.08L2153.04 1629.06L2155.57 1626.02L2167.71 1625.52L2171.76 1626.02L2179.86 1625.52L2187.95 1626.02H2206.17L2209.71 1625.52L2216.79 1626.02H2227.42L2233.49 1628.55V1641.2L2232.48 1647.78V1651.83L2231.47 1657.9L2230.96 1661.95L2230.45 1664.98L2229.95 1668.52V1671.56L2228.43 1678.14L2227.42 1681.17L2227.92 1684.71L2226.91 1687.75L2225.9 1694.33L2225.39 1697.87L2223.88 1703.94L2223.37 1707.48L2222.36 1713.55L2221.35 1719.12L2220.33 1727.22L2218.31 1734.3L2216.79 1737.84L2215.78 1747.46L2214.26 1749.99L2213.25 1754.03L2211.73 1758.59L2209.2 1765.16L2207.18 1768.71L2206.17 1771.74L2205.16 1775.28L2201.61 1782.87L2199.59 1786.42L2195.04 1792.99L2188.96 1800.58L2182.89 1804.63L2179.86 1806.15L2175.81 1809.18L2169.23 1812.22L2161.64 1815.26L2151.02 1816.77L2148.49 1817.28L2141.4 1818.8L2133.31 1820.32H2122.18L2117.12 1820.82ZM2343.19 1822.34L2331.05 1821.33L2327.51 1820.82H2322.45L2316.88 1819.81L2311.82 1818.8L2308.28 1817.79L2300.19 1814.24L2294.62 1812.22L2289.56 1808.68L2283.49 1804.63L2278.43 1798.05L2273.37 1791.98L2268.82 1784.9L2265.27 1776.3L2264.26 1772.25L2260.72 1763.14L2260.22 1760.1L2258.7 1753.02L2258.19 1749.99L2257.18 1741.89V1726.71L2257.69 1718.11L2257.18 1714.57L2258.19 1706.98L2258.7 1702.93L2259.71 1699.39L2261.23 1691.29L2268.31 1687.75L2280.45 1686.74L2286.53 1687.24H2314.86L2321.44 1687.75L2325.49 1694.83V1713.55L2324.98 1717.1V1727.72L2325.99 1738.85L2327.51 1743.91L2331.05 1751.5L2336.11 1756.56L2342.69 1758.08H2347.24L2351.29 1757.07L2356.86 1755.55L2359.39 1753.02L2361.92 1748.47L2363.94 1744.93L2365.96 1738.85L2366.98 1732.78L2367.48 1727.72V1724.18L2366.98 1717.1V1709L2364.95 1699.89V1696.86L2363.43 1689.27L2359.39 1682.18L2355.34 1676.11L2351.8 1669.03L2349.77 1665.99L2348.76 1663.46L2347.24 1660.93L2343.7 1657.39L2341.17 1653.34L2335.61 1646.77L2333.08 1644.24L2331.05 1641.2L2325.49 1634.62L2319.41 1628.05L2314.86 1621.47L2309.8 1615.9L2304.74 1611.85L2302.21 1608.31L2299.18 1603.25L2296.14 1595.66L2294.12 1591.11L2291.59 1587.57L2290.07 1584.03L2289.06 1579.98L2287.03 1573.4L2286.53 1566.82L2286.02 1562.77L2286.53 1559.23V1544.56L2287.54 1534.44L2289.06 1530.9L2289.56 1523.81L2291.59 1520.27L2293.1 1515.21L2293.61 1510.15L2296.65 1503.58L2298.67 1499.53L2300.19 1495.99L2301.71 1493.46L2305.75 1488.9L2307.27 1486.88L2310.31 1481.82L2313.34 1478.78L2319.41 1473.72L2328.52 1467.15L2336.62 1464.11L2342.18 1461.07L2351.8 1459.05L2360.4 1456.52H2376.08L2388.73 1457.03H2392.27L2396.83 1458.04L2404.42 1458.54L2413.02 1461.07L2416.56 1461.58L2418.59 1463.1L2424.66 1466.13L2428.2 1469.17L2432.25 1470.69L2437.81 1475.75L2439.33 1477.77L2444.39 1483.34L2445.91 1485.87L2449.45 1491.43L2451.47 1494.47L2452.49 1500.03L2454 1503.58L2457.04 1515.72V1526.85L2457.55 1536.97L2457.04 1545.57L2455.02 1559.74L2452.99 1570.87L2446.92 1573.91L2437.81 1574.41H2409.48L2402.39 1573.91H2395.31L2391.26 1570.36L2390.76 1563.79L2391.77 1559.74L2393.29 1544.05V1532.42L2392.27 1526.34L2390.76 1523.31L2386.2 1518.76L2381.14 1514.71L2374.57 1513.7L2368.49 1515.72L2362.93 1518.25L2360.4 1521.79L2358.88 1525.33L2356.86 1530.39L2356.35 1533.93L2354.83 1538.99L2354.33 1546.08V1552.66L2354.83 1556.2L2358.37 1565.81L2362.42 1572.89L2364.45 1576.94L2367.99 1583.52L2373.55 1590.6L2380.13 1598.7L2382.15 1601.73L2384.68 1604.26L2386.71 1608.31L2388.73 1610.84L2391.77 1612.87L2396.83 1616.91L2398.35 1619.95L2400.88 1621.47L2402.39 1624L2406.95 1629.06L2409.48 1633.61L2415.55 1639.68L2419.09 1648.28L2423.64 1653.85L2424.15 1656.38L2428.2 1666.5L2431.23 1673.08L2434.27 1683.7L2434.78 1687.24L2435.28 1691.29L2435.79 1694.83L2438.32 1703.44L2439.33 1706.47L2438.82 1713.55L2438.32 1716.59L2438.82 1720.13L2438.32 1723.67V1737.84L2436.8 1744.93L2436.29 1747.96V1755.55L2434.27 1762.13L2433.26 1766.18L2432.25 1770.73L2429.72 1777.81L2425.16 1786.42L2422.13 1788.44L2419.6 1793.5L2417.07 1795.52L2413.02 1800.08L2410.49 1802.1L2406.44 1805.64L2401.38 1808.68L2396.83 1812.22L2390.76 1813.74L2387.72 1815.76L2380.13 1818.29L2376.08 1818.8L2369.51 1820.82L2365.96 1821.33L2361.41 1820.82L2357.87 1821.33H2352.3L2348.76 1821.83L2343.19 1822.34Z" fill="#FFE500"/>
<path d="M1389.4 1412.07L1383.81 1411.7H1357.39L1355.53 1410.21L1354.41 1406.11L1354.04 1400.9L1354.41 1398.67L1353.66 1393.46L1352.92 1387.5L1351.8 1384.53L1352.18 1379.69L1352.55 1377.45L1352.18 1372.24L1351.8 1369.64V1362.19L1350.69 1359.59L1351.43 1357.36L1351.06 1354.75L1351.43 1349.54L1350.32 1345.07L1351.06 1340.98L1351.8 1335.4L1351.06 1330.56L1350.32 1327.21L1349.57 1320.51V1317.9L1351.06 1308.6L1350.69 1302.27L1350.32 1295.57L1350.69 1288.87L1349.94 1282.17H1348.08L1345.85 1285.89L1345.1 1288.5L1343.62 1290.73L1341.75 1297.43L1339.15 1303.76L1336.92 1308.6L1327.98 1330.19L1326.49 1332.79L1319.8 1347.68L1319.42 1350.28L1317.19 1354.75L1316.82 1356.98L1315.7 1361.08L1313.47 1365.92L1311.23 1370.38L1310.49 1372.62L1309.37 1377.08L1308.26 1379.69L1306.77 1381.92L1305.65 1387.13L1304.53 1389.74L1303.05 1393.46L1301.93 1396.81L1301.19 1400.9L1298.58 1405L1297.46 1407.23L1296.72 1409.09L1291.51 1410.95H1289.27L1285.93 1409.84L1284.06 1410.58L1275.5 1410.21L1271.04 1411.32L1267.32 1409.84L1265.08 1410.21H1261.36L1258.75 1410.58H1255.03L1252.43 1410.21L1250.19 1406.86L1250.57 1403.88L1249.82 1401.27L1250.19 1397.55V1394.2L1249.82 1391.6L1250.19 1387.13L1249.82 1384.9L1250.19 1382.29L1249.82 1378.94L1250.19 1376.34L1250.57 1372.24V1368.52L1250.94 1366.29L1251.31 1361.08L1250.94 1358.47L1251.31 1355.87L1250.94 1350.66V1343.21L1251.31 1340.98L1251.68 1335.77V1315.3L1252.06 1310.09V1307.11L1252.8 1300.41L1252.06 1295.57L1252.43 1292.22L1253.17 1287.38V1284.78L1253.92 1281.8L1253.54 1279.19V1272.87L1253.92 1270.26L1254.29 1265.8L1253.92 1263.19L1254.29 1258.35L1253.92 1256.12L1254.29 1250.91L1253.92 1247.93L1254.66 1245.32L1254.29 1239.74L1253.92 1237.14L1254.29 1226.34L1254.66 1221.13L1254.29 1216.29L1255.03 1209.22L1255.41 1206.62L1255.78 1202.89V1198.43L1256.15 1192.85L1255.78 1185.03V1182.42L1256.52 1174.98V1172.75L1256.89 1170.14L1256.52 1165.67V1163.07L1256.89 1160.84V1157.49L1257.64 1152.28L1262.1 1151.16H1271.78L1275.88 1150.79L1279.6 1151.16H1281.46L1284.44 1150.79H1291.88L1296.72 1151.53L1300.81 1151.16H1303.42L1307.51 1153.39L1308.26 1159.72V1163.07L1308.63 1165.67L1307.14 1177.21V1179.45L1307.51 1182.05L1307.14 1195.82L1306.4 1198.06L1306.02 1206.62V1213.32L1305.65 1215.92L1304.53 1221.13V1225.97L1305.28 1231.18L1304.91 1233.79L1304.53 1236.02L1304.16 1241.23L1303.79 1243.84V1246.07L1303.05 1248.67V1250.91L1302.67 1253.51L1303.05 1255.75L1302.67 1263.93L1301.93 1269.15L1302.3 1271.75L1301.93 1274.73V1279.94L1301.19 1284.78L1301.56 1288.5H1303.05L1305.28 1284.41L1306.4 1282.17L1308.63 1277.33L1309.37 1274.73L1311.61 1269.89L1312.72 1265.42L1315.33 1260.58L1315.7 1258.35L1320.91 1249.42L1321.66 1244.95L1324.26 1238.25L1325.01 1235.65L1328.36 1228.95L1329.84 1224.48L1330.96 1222.62L1332.82 1218.15L1333.94 1215.92L1335.06 1211.83L1337.29 1206.62L1341.01 1197.31L1341.75 1194.71L1344.36 1187.26L1346.59 1182.42L1347.34 1179.45L1349.57 1172.75L1350.69 1170.51L1353.29 1165.67L1357.01 1163.81H1368.92L1373.39 1164.19L1377.11 1163.81H1380.09L1382.7 1164.19H1385.3L1387.16 1166.79L1387.53 1176.1V1187.26L1387.91 1193.22L1387.53 1201.03V1203.27L1387.91 1208.48L1387.53 1210.71L1387.91 1224.48V1227.09L1387.16 1231.93L1387.53 1236.02V1243.46L1387.91 1246.44L1387.16 1248.67L1387.53 1251.65L1387.16 1254.26L1386.79 1257.24L1387.53 1264.68L1387.16 1278.08L1387.91 1283.29V1289.62H1389.77L1390.88 1285.52L1392.75 1281.06L1394.23 1276.22L1397.21 1265.8L1397.58 1263.19L1398.33 1260.96L1401.68 1252.4L1402.79 1247.93L1403.91 1245.7L1404.66 1243.09L1405.4 1240.86L1406.52 1238.25L1407.63 1236.02L1409.12 1231.18L1409.87 1228.2L1411.36 1223.74L1411.73 1221.13L1412.47 1218.9L1413.22 1216.29L1415.82 1211.83L1416.19 1209.22L1417.31 1204.76L1419.17 1195.08L1421.78 1190.24L1423.27 1185.4L1424.38 1181.31L1426.24 1177.21L1428.1 1172L1429.22 1169.77L1429.96 1167.16L1431.08 1164.56L1431.45 1161.95L1432.2 1159.72L1434.43 1154.88L1435.55 1153.02L1440.01 1151.16H1442.62L1445.23 1150.41L1456.76 1150.79H1464.21L1472.02 1150.41L1477.23 1150.79L1479.84 1150.41L1482.44 1150.79H1486.17L1488.4 1153.02L1487.66 1159.35L1486.91 1161.58L1485.42 1165.67L1484.31 1167.91L1480.58 1176.84L1479.09 1181.31L1477.98 1186.52L1476.49 1191.36L1475.37 1193.96L1475 1196.2L1472.02 1201.03L1471.28 1203.64L1468.67 1210.71L1467.93 1213.32L1466.07 1217.78L1465.7 1220.39L1462.72 1227.09L1461.97 1230.44L1461.23 1232.3L1459 1237.14L1458.25 1239.37L1456.39 1245.32L1454.9 1247.56L1453.04 1252.4L1451.92 1255L1451.18 1257.61L1450.06 1262.82L1449.32 1265.05L1447.83 1267.66L1446.34 1271.75L1443.74 1276.22L1441.88 1281.43L1440.76 1285.52L1438.15 1288.87L1437.41 1291.1L1437.04 1293.34L1434.8 1302.27L1432.94 1307.11L1431.83 1309.34L1430.34 1313.81L1427.36 1319.76L1426.24 1324.97L1423.27 1330.19L1422.15 1335.4L1420.66 1338L1420.29 1340.61L1417.31 1348.42L1416.57 1350.66L1414.7 1355.87L1413.96 1358.1L1412.47 1360.71L1411.73 1365.54L1410.98 1368.15L1408.75 1372.62L1407.26 1377.45L1406.14 1380.43L1404.28 1385.64L1403.91 1387.88L1402.79 1392.71L1397.58 1401.65L1394.98 1410.95L1389.4 1412.07ZM1477.29 1412.07L1471.71 1411.7L1469.11 1411.32L1441.94 1410.95L1438.59 1410.21L1437.84 1407.23L1438.59 1404.62L1438.96 1402.39L1441.19 1397.93L1444.17 1393.09L1447.89 1381.92L1450.12 1377.45L1451.99 1372.99L1456.08 1364.06L1457.57 1359.22L1460.55 1352.52L1461.29 1350.28L1463.15 1347.68L1465.01 1343.21L1465.76 1340.98L1466.13 1338.37L1467.25 1336.14L1469.11 1331.3L1470.22 1328.7L1472.83 1323.49L1473.57 1320.88L1474.32 1317.53L1476.18 1314.55L1478.41 1310.09L1479.16 1307.48L1481.39 1302.27L1481.76 1300.04L1482.88 1297.43L1483.99 1295.2L1485.86 1289.99L1486.97 1287.76L1489.95 1277.33L1491.07 1274.36L1493.67 1269.52L1495.53 1263.19L1497.77 1259.1L1498.88 1256.86L1500 1252.02L1501.86 1249.42L1502.98 1244.58L1503.72 1242.72L1505.95 1237.88L1507.07 1232.67L1508.93 1230.06L1510.42 1227.83L1513.4 1220.02L1515.26 1215.18L1516.38 1212.94L1518.61 1209.59L1519.73 1205.87L1520.84 1203.27L1524.19 1196.57L1524.94 1193.96L1526.05 1191.73L1526.8 1189.5L1527.54 1186.89L1529.77 1182.8L1531.26 1180.56L1532.01 1178.7L1534.24 1172L1536.85 1167.16L1540.2 1160.46L1541.31 1157.86L1542.43 1155.63L1543.92 1151.53L1546.52 1151.16H1550.25L1557.32 1151.53L1561.04 1151.16H1566.99L1574.07 1150.79H1577.42L1580.02 1151.53L1583.37 1151.16H1589.33L1591.19 1151.9L1593.79 1153.76L1594.91 1169.77V1177.96L1595.65 1180.19V1186.89L1596.03 1200.29V1205.5L1596.4 1210.34L1597.14 1217.78V1222.99L1597.51 1228.58L1597.14 1231.18V1239.37L1597.89 1244.58V1252.02L1598.26 1257.24L1597.89 1259.47L1598.26 1264.31V1266.54L1598.63 1272.5L1599.38 1276.59V1291.1L1599.75 1295.57L1600.12 1298.55V1309.71L1600.49 1326.84V1329.44L1600.86 1335.02L1600.49 1340.61L1600.86 1345.82L1600.49 1348.42L1601.24 1362.57V1364.8L1601.61 1369.64L1601.98 1372.24V1377.83L1601.61 1383.04L1601.98 1386.01V1389.36L1602.35 1397.55V1405.37C1602.72 1406.86 1603.1 1410.21 1601.24 1411.32C1599.75 1411.7 1598.63 1411.32 1597.14 1411.32L1594.54 1411.7L1591.56 1411.32H1586.35L1578.16 1411.7H1575.18L1570.72 1411.32L1568.11 1411.7L1564.39 1412.07L1559.55 1411.7H1553.97L1552.48 1410.58L1551.73 1406.86L1551.36 1400.16L1550.99 1396.44L1551.36 1392.71V1375.22L1550.99 1372.24L1542.8 1371.87L1536.85 1371.13L1520.47 1370.75H1510.42L1508.56 1374.85L1505.95 1379.69L1505.21 1382.29L1504.09 1384.9L1502.6 1389.36L1498.88 1396.44L1496.65 1402.02L1495.53 1406.11L1494.42 1407.97L1492.93 1410.58L1490.69 1412.07L1480.27 1411.7L1477.29 1412.07ZM1538.71 1322.37H1549.87L1552.11 1320.51L1552.48 1315.3L1552.11 1312.32L1552.48 1309.34V1299.67L1552.85 1297.06V1290.73L1553.6 1287.76L1553.22 1278.82L1553.6 1264.68L1553.97 1251.28L1553.6 1242.72L1550.62 1243.84L1549.13 1248.67L1547.27 1254.63L1546.15 1258.35L1544.29 1264.31L1542.8 1267.28L1541.31 1271.01L1540.94 1273.61L1539.45 1276.22L1538.34 1279.57L1537.22 1282.17L1536.1 1285.52L1533.87 1293.71L1533.5 1296.32L1531.64 1301.9L1530.15 1304.5L1528.29 1310.83L1527.54 1313.44L1526.8 1316.79L1525.68 1319.39L1528.29 1321.63H1531.26L1535.36 1322L1538.71 1322.37ZM1692.2 1415.05L1687.36 1414.67H1684.76L1678.8 1413.93H1676.57L1670.24 1412.44L1666.52 1411.32L1660.19 1409.84L1654.98 1407.23L1649.77 1403.14L1646.8 1401.65L1643.07 1397.55L1641.58 1395.69L1640.47 1393.83L1637.86 1389.36L1635.26 1386.76L1634.14 1383.41L1633.02 1379.69L1632.65 1376.71L1631.16 1372.99L1630.05 1370.38V1368.15L1628.56 1360.33L1628.93 1353.63L1629.67 1349.91V1344.7L1630.05 1343.21V1338.37L1630.42 1335.77L1630.79 1333.54L1631.16 1328.7L1631.54 1326.09L1632.28 1321.25L1631.54 1318.65L1633.02 1313.81V1308.97L1634.14 1303.76L1634.51 1298.18L1636 1292.97L1636.37 1287.01L1636.75 1284.03L1638.23 1278.82L1638.98 1273.61L1640.84 1265.8L1641.96 1260.96L1641.58 1257.61L1642.7 1253.89L1643.07 1251.28L1644.56 1246.07L1645.68 1241.98L1646.42 1237.14L1646.8 1234.16L1648.28 1230.81L1648.66 1226.72L1649.4 1224.11L1649.77 1221.88L1650.89 1219.64L1651.26 1217.04L1652.38 1214.8L1653.12 1212.2L1654.24 1209.97L1656.1 1205.5L1656.47 1203.64L1657.96 1199.17L1659.45 1193.96L1660.57 1191.73L1661.68 1188.75L1663.92 1183.91L1665.03 1181.68L1665.78 1179.07L1667.64 1175.72L1669.5 1171.63L1670.99 1169.77L1672.1 1167.54L1673.59 1165.67L1677.69 1161.21L1682.53 1157.49L1687.36 1155.25L1692.2 1152.65L1697.04 1150.79L1701.88 1149.3L1707.84 1148.55L1713.05 1147.44H1724.21L1734.26 1147.07L1739.1 1147.44L1743.94 1148.18L1746.92 1148.93H1751.75L1758.08 1150.04L1760.69 1151.16L1767.01 1153.76L1772.23 1155.63L1776.69 1159.35L1781.9 1164.56L1783.02 1166.79L1784.14 1168.28L1784.88 1171.63L1786.37 1175.72L1786.74 1179.82L1787.11 1184.66V1199.17L1786.74 1204.01V1208.11L1786.37 1212.57V1215.18L1785.62 1219.64L1785.25 1224.11L1784.88 1227.46L1784.14 1233.04L1781.9 1237.88L1778.55 1240.11L1771.11 1240.49L1764.78 1240.11L1758.83 1240.49L1755.1 1240.11H1744.68L1740.59 1239.74L1736.87 1238.25L1736.49 1235.28L1736.87 1231.18L1737.61 1225.23L1738.36 1220.39L1739.1 1217.78L1738.73 1214.43L1739.84 1207.73L1739.47 1205.13L1739.1 1201.03L1738.73 1198.8L1736.87 1196.2L1734.63 1193.96L1730.91 1192.47H1722.72L1720.12 1193.22L1716.77 1195.08L1713.79 1198.06L1712.67 1200.29L1711.19 1202.89L1710.07 1205.5L1709.7 1207.73L1707.46 1211.83L1705.23 1216.67L1704.11 1221.13L1703.74 1224.11L1702.62 1226.72V1229.32L1701.14 1232.67L1700.76 1234.9L1700.02 1237.51L1699.27 1241.98L1697.79 1244.95L1697.41 1247.56L1696.67 1252.4L1695.55 1255L1694.81 1258.72L1694.44 1262.07L1693.32 1265.42L1692.2 1270.26L1691.83 1274.36L1690.34 1281.43L1689.23 1286.27L1688.48 1288.87L1688.11 1293.71L1687.36 1295.94L1686.99 1301.15V1303.76L1685.88 1307.48L1684.76 1311.58V1315.67L1684.39 1320.88L1684.01 1325.72L1683.64 1328.32L1683.27 1330.56L1682.9 1335.4L1682.53 1340.61V1346.19L1682.9 1349.91V1353.63L1685.13 1356.98L1686.62 1359.59L1687.74 1360.71L1691.46 1362.57L1698.53 1363.68H1705.6L1710.07 1362.19L1714.16 1359.59L1716.77 1356.24L1718.26 1352.89L1720.12 1348.42L1721.23 1345.07L1722.35 1341.35L1724.58 1332.79L1726.45 1318.28L1725.7 1316.41L1723.1 1316.04H1714.53L1712.3 1313.81V1309.34L1714.16 1299.29L1715.28 1290.36L1716.02 1286.64L1716.4 1283.66L1718.26 1275.47L1718.63 1273.98L1720.49 1271.75L1729.42 1271.38L1732.4 1271.75L1738.36 1271.38L1744.31 1271.75H1757.71L1760.31 1271.38L1765.53 1271.75H1773.34L1777.81 1273.61V1282.92L1777.06 1287.76V1290.73L1776.32 1295.2L1775.95 1298.18L1775.58 1300.41L1775.2 1303.02V1305.25L1774.09 1310.09L1773.34 1312.32L1773.71 1314.93L1772.97 1317.16L1772.23 1322L1771.85 1324.6L1770.74 1329.07L1770.36 1331.67L1769.62 1336.14L1768.88 1340.23L1768.13 1346.19L1766.64 1351.4L1765.53 1354.01L1764.78 1361.08L1763.66 1362.94L1762.92 1365.92L1761.8 1369.27L1759.94 1374.1L1758.45 1376.71L1757.71 1378.94L1756.97 1381.55L1754.36 1387.13L1752.87 1389.74L1749.52 1394.58L1745.05 1400.16L1740.59 1403.14L1738.36 1404.25L1735.38 1406.49L1730.54 1408.72L1724.96 1410.95L1717.14 1412.07L1715.28 1412.44L1710.07 1413.56L1704.11 1414.67H1695.93L1692.2 1415.05ZM1831.81 1411.32L1829.21 1410.95H1823.63L1819.53 1408.72L1819.16 1403.88L1819.9 1399.41L1820.65 1394.58L1820.28 1392.34L1821.02 1389.74L1821.39 1387.5L1821.77 1384.9L1822.51 1382.67V1378.57L1823.63 1375.22L1825.49 1367.03L1825.86 1362.94L1826.6 1358.1L1827.72 1355.49L1828.46 1349.91L1829.58 1344.7L1830.7 1341.72V1338L1831.81 1332.05L1833.3 1327.21L1833.68 1324.97V1322.37L1835.16 1318.28L1835.54 1313.81L1837.4 1307.48L1837.03 1303.02L1835.91 1299.29L1835.54 1295.94L1835.91 1292.97L1835.16 1290.36L1834.42 1284.78L1833.3 1279.19V1276.22L1832.19 1273.61L1831.44 1268.4L1831.81 1266.17L1830.7 1260.58L1829.58 1253.89L1829.21 1251.28L1828.09 1246.81L1826.6 1241.98L1825.86 1237.14V1234.53L1824.74 1228.58L1822.88 1222.99L1822.51 1220.02L1821.77 1210.71L1821.02 1207.73L1821.39 1203.27L1820.28 1200.66L1819.53 1195.08V1192.47L1818.04 1187.26L1816.55 1176.1L1816.18 1171.26L1815.81 1169.02L1815.07 1163.81L1814.69 1158.98V1155.25L1815.81 1152.28L1817.67 1151.53L1820.65 1151.16L1830.33 1150.79L1835.54 1151.16L1839.26 1150.79L1841.86 1151.16L1845.96 1150.41L1856.01 1150.79H1861.59L1865.68 1155.25L1866.8 1158.98V1167.54L1867.92 1170.51V1174.24L1869.41 1177.21L1870.15 1187.63L1869.78 1189.87L1870.89 1195.08L1871.64 1197.68L1873.13 1201.41L1872.76 1205.13L1873.13 1209.97L1874.24 1213.69V1217.04L1874.99 1221.5L1876.48 1231.18L1876.85 1236.76L1878.34 1237.14L1879.46 1235.28L1880.2 1233.04L1880.94 1231.18L1883.18 1226.72L1884.67 1224.11L1885.04 1221.88L1888.02 1217.41L1889.88 1212.94L1892.11 1208.85L1895.83 1199.92L1898.07 1195.08L1899.55 1192.85L1899.93 1190.24L1902.9 1185.4L1903.65 1183.17L1904.39 1180.56L1907.74 1173.12L1909.98 1167.91L1911.84 1163.07L1912.95 1160.84L1915.19 1157.11L1918.91 1152.28L1921.51 1150.79L1933.8 1150.04L1939.38 1150.79L1945.33 1150.41H1955.01L1959.11 1151.16L1966.55 1150.79L1970.64 1153.02V1157.86L1969.53 1162.7L1968.78 1164.56L1965.8 1168.65L1965.06 1170.89L1962.83 1175.35L1961.34 1177.59L1960.97 1180.19L1958.73 1184.66L1957.24 1186.52L1955.76 1190.98L1952.78 1195.08L1952.03 1197.68L1950.54 1199.92L1949.8 1202.15L1946.45 1209.22L1944.22 1211.46L1941.98 1216.67L1939.01 1221.13L1938.63 1223.37L1937.15 1225.6L1936.4 1227.83L1932.68 1234.16L1930.82 1239L1929.7 1241.6L1928.96 1243.84L1926.35 1248.3L1925.61 1250.16L1923.75 1252.4L1923.37 1254.63L1919.65 1259.47L1918.16 1261.7L1916.68 1264.31L1914.44 1269.15L1912.21 1272.87L1909.23 1279.57L1906.25 1284.03L1904.02 1288.87L1901.79 1291.1L1900.67 1292.97L1899.55 1295.2L1896.95 1299.67L1895.46 1304.13L1893.97 1305.99L1893.23 1308.97L1892.11 1310.83L1890.25 1312.69L1889.5 1316.41V1319.02L1888.02 1323.86L1886.9 1327.95L1886.15 1331.67L1885.41 1336.14L1884.67 1338.37L1885.04 1340.61L1883.92 1345.45L1882.81 1350.66L1881.32 1356.24L1879.83 1361.45L1879.46 1364.06L1878.34 1367.78L1877.59 1370.38V1372.62L1876.85 1377.83L1875.73 1383.41L1874.99 1386.01L1873.5 1391.6L1872.38 1396.81L1871.27 1403.51L1869.41 1411.32H1856.01L1853.03 1410.95L1850.8 1411.32H1847.45L1841.86 1410.95L1839.63 1411.32H1831.81ZM2019.69 1413.56L2004.43 1411.7L2001.83 1410.95L2000.34 1410.21L1994.01 1407.97L1991.4 1406.86L1989.17 1405.74L1981.73 1401.27L1978.01 1397.55L1975.77 1394.95L1973.91 1392.71L1972.05 1389.74L1971.68 1388.62L1968.7 1382.67L1965.72 1377.45L1964.23 1371.5L1963.86 1366.29L1962.37 1353.63L1962.75 1351.4L1963.12 1338.75L1963.86 1335.4L1965.35 1325.35L1965.72 1320.51L1966.1 1314.93L1966.84 1310.46L1967.58 1306.74V1301.9L1969.07 1297.43L1969.45 1294.83L1969.82 1292.59L1970.93 1288.13L1970.56 1285.52L1970.93 1282.92L1972.05 1278.45L1972.8 1275.84V1271.01L1974.28 1266.17L1974.66 1260.96L1975.77 1256.12L1977.26 1250.91V1247.93L1977.63 1242.72L1978.75 1240.49L1979.87 1230.06L1980.61 1227.83L1981.36 1222.99V1220.39L1981.73 1218.15L1983.59 1213.32L1983.96 1210.71L1984.33 1207.73L1985.45 1202.52L1985.82 1199.54V1196.57L1986.94 1191.36V1188.75L1987.68 1186.52L1988.8 1176.1L1990.66 1171.26L1991.4 1169.4L1992.15 1165.67L1992.89 1160.46L1994.38 1155.25L1995.13 1152.28L1997.36 1151.53L2003.69 1151.16H2005.55L2008.9 1150.79L2024.53 1151.16L2033.46 1150.41L2036.81 1150.79L2042.77 1151.16L2046.12 1153.76L2046.49 1159.35V1164.56L2045.75 1166.79L2045 1169.4L2045.37 1174.61L2044.63 1177.21L2043.88 1180.56L2043.14 1183.54L2042.77 1186.15L2042.02 1188.38V1190.98L2040.53 1195.45L2039.79 1200.29L2039.42 1203.27V1206.99L2039.05 1209.59L2037.19 1214.8L2036.81 1217.78L2035.7 1223.37L2034.95 1228.95L2034.58 1231.18L2033.46 1233.79L2033.09 1237.51L2032.72 1240.11L2031.97 1243.09V1245.7L2030.11 1250.91L2029.74 1253.14L2030.49 1257.98L2029 1261.33L2028.62 1264.68L2028.25 1267.66L2027.51 1270.26L2026.76 1272.5L2025.65 1276.96V1281.8L2024.16 1286.64L2023.41 1291.1L2021.55 1304.5L2020.44 1311.95L2020.06 1317.16L2018.95 1322L2017.83 1330.93L2017.46 1334.28L2017.09 1336.51L2016.71 1339.12L2017.09 1345.07V1349.17L2017.46 1353.63L2021.55 1358.47L2025.65 1359.59L2033.46 1360.71L2042.02 1359.59L2045.75 1356.61L2047.98 1353.63L2049.1 1351.4L2051.7 1345.45L2053.56 1341.72L2054.31 1338.37L2055.05 1336.14L2056.91 1328.7L2058.03 1323.49L2058.77 1320.88L2059.14 1317.16L2059.89 1314.93L2060.63 1311.58L2061.01 1308.23L2061.75 1305.62L2062.49 1302.64L2062.87 1300.04L2063.61 1295.2L2064.36 1291.48L2065.84 1284.78L2066.22 1280.31L2066.96 1277.71L2068.82 1272.5V1269.52L2069.57 1264.68L2070.68 1259.84L2071.43 1255.37L2072.92 1250.16L2073.29 1247.19L2074.78 1241.98V1239L2075.52 1233.79L2075.89 1231.93V1226.72L2078.13 1222.99L2077.75 1218.9L2079.24 1213.69L2079.62 1210.71L2080.36 1205.5L2080.73 1202.52L2081.85 1197.31L2082.59 1192.1L2083.34 1187.26L2082.97 1184.66L2084.83 1180.56L2085.2 1178.33L2085.57 1173.86L2085.94 1171.63L2087.06 1166.79L2088.18 1161.58L2089.29 1156.74L2089.66 1153.76L2090.78 1151.16L2101.95 1150.79H2104.55L2107.16 1151.16L2117.95 1150.79H2120.56L2123.16 1151.16H2126.14L2128.75 1150.79L2132.47 1151.16L2135.07 1150.79L2138.42 1150.41L2141.4 1150.79L2144.38 1153.76L2144.75 1159.35L2142.52 1164.56L2142.14 1170.14L2141.4 1173.12L2140.66 1178.33L2140.28 1181.31L2138.79 1186.52L2138.42 1189.12L2137.68 1192.1L2137.31 1194.71L2135.82 1199.54L2136.19 1201.78L2134.7 1206.24V1208.48L2133.58 1212.57L2132.84 1215.92L2131.72 1219.27L2130.98 1222.62L2129.86 1227.09V1229.69L2129.12 1232.3L2128.75 1234.53L2128 1237.14L2128.37 1239.74L2125.77 1247.93L2124.65 1253.51V1255.75L2123.53 1260.96L2123.16 1263.19L2122.42 1268.4L2122.05 1273.61L2120.56 1278.82V1281.43L2119.81 1286.64L2118.32 1289.62L2117.95 1294.45L2117.21 1298.92L2116.09 1303.76L2114.6 1308.97L2114.23 1311.58L2113.11 1316.79V1317.53L2111.62 1322L2110.51 1326.84V1329.07L2109.76 1331.67L2108.65 1335.77L2107.9 1339.12V1341.72L2107.16 1343.96L2106.41 1346.56L2104.92 1351.03L2103.44 1355.87L2102.32 1362.19L2100.46 1364.43L2099.34 1369.27L2096.74 1374.1L2095.25 1376.34L2093.01 1381.55L2091.53 1384.15L2089.66 1386.76L2088.18 1390.11L2085.94 1393.46L2082.59 1396.06L2079.62 1399.79L2076.27 1401.65L2073.29 1403.51L2068.82 1405.37L2066.96 1406.86L2061.01 1409.09L2058.77 1409.84L2054.31 1410.95L2050.96 1411.7L2048.72 1412.44L2041.28 1413.19H2032.72L2027.14 1413.56H2019.69Z" fill="#FFE500"/>
<defs>
<linearGradient id="paint0_linear_1503_78830" x1="2079.32" y1="-175.575" x2="2682.73" y2="2946.42" gradientUnits="userSpaceOnUse">
<stop offset="0.0259125" stop-color="#FFF200"/>
<stop offset="1" stop-color="#DBC700"/>
</linearGradient>
<clipPath id="clip0_1503_78830">
<rect width="1274.18" height="1057.49" fill="white" transform="matrix(-0.957701 -0.287766 -0.287766 0.957701 3371.92 878.668)"/>
</clipPath>
<clipPath id="clip1_1503_78830">
<rect width="359.783" height="279.194" fill="white" transform="translate(2129.6 798.219) rotate(14.0293)"/>
</clipPath>
</defs>
</svg>